<?xml version="1.0" encoding="UTF-8" standalone="no"?><svg xmlns="http://www.w3.org/2000/svg" xmlns:xlink="http://www.w3.org/1999/xlink" contentScriptType="application/ecmascript" contentStyleType="text/css" height="614px" preserveAspectRatio="none" style="width:803px;height:614px;" version="1.1" viewBox="0 0 803 614" width="803px" zoomAndPan="magnify"><defs><filter height="300%" id="f81kqd4e9usm6" width="300%" x="-1" y="-1"><feGaussianBlur result="blurOut" stdDeviation="2.0"/><feColorMatrix in="blurOut" result="blurOut2" type="matrix" values="0 0 0 0 0 0 0 0 0 0 0 0 0 0 0 0 0 0 .4 0"/><feOffset dx="4.0" dy="4.0" in="blurOut2" result="blurOut3"/><feBlend in="SourceGraphic" in2="blurOut3" mode="normal"/></filter></defs><g><text fill="#000000" font-family="sans-serif" font-size="18" lengthAdjust="spacingAndGlyphs" textLength="197" x="305" y="16.708">Software Components</text><!--cluster Frontend--><polygon fill="#FFFFFF" filter="url(#f81kqd4e9usm6)" points="273,37.4531,351,37.4531,358,59.75,387,59.75,387,118.4531,273,118.4531,273,37.4531" style="stroke: #000000; stroke-width: 1.5;"/><line style="stroke: #000000; stroke-width: 1.5;" x1="273" x2="358" y1="59.75" y2="59.75"/><text fill="#000000" font-family="sans-serif" font-size="14" font-weight="bold" lengthAdjust="spacingAndGlyphs" textLength="72" x="277" y="52.4482">Frontend</text><!--cluster Python Module Development--><polygon fill="#FFFFFF" filter="url(#f81kqd4e9usm6)" points="401,37.4531,633,37.4531,640,59.75,643,59.75,643,118.4531,401,118.4531,401,37.4531" style="stroke: #000000; stroke-width: 1.5;"/><line style="stroke: #000000; stroke-width: 1.5;" x1="401" x2="640" y1="59.75" y2="59.75"/><text fill="#000000" font-family="sans-serif" font-size="14" font-weight="bold" lengthAdjust="spacingAndGlyphs" textLength="226" x="405" y="52.4482">Python Module Development</text><!--cluster Backend--><polygon fill="#FFFFFF" filter="url(#f81kqd4e9usm6)" points="14,300.4531,87,300.4531,94,322.75,781,322.75,781,602.9531,14,602.9531,14,300.4531" style="stroke: #000000; stroke-width: 1.5;"/><line style="stroke: #000000; stroke-width: 1.5;" x1="14" x2="94" y1="322.75" y2="322.75"/><text fill="#000000" font-family="sans-serif" font-size="14" font-weight="bold" lengthAdjust="spacingAndGlyphs" textLength="67" x="18" y="315.4482">Backend</text><!--cluster Database--><path d="M357,500.4531 C357,490.4531 411,490.4531 411,490.4531 C411,490.4531 465,490.4531 465,500.4531 L465,576.4531 C465,586.4531 411,586.4531 411,586.4531 C411,586.4531 357,586.4531 357,576.4531 L357,500.4531 " fill="#FFFFFF" filter="url(#f81kqd4e9usm6)" style="stroke: #000000; stroke-width: 1.5;"/><path d="M357,500.4531 C357,510.4531 411,510.4531 411,510.4531 C411,510.4531 465,510.4531 465,500.4531 " fill="none" style="stroke: #000000; stroke-width: 1.5;"/><text fill="#000000" font-family="sans-serif" font-size="14" font-weight="bold" lengthAdjust="spacingAndGlyphs" textLength="73" x="374.5" y="525.4482">Database</text><!--entity frontend--><rect fill="#FEFECE" filter="url(#f81kqd4e9usm6)" height="46.2969" style="stroke: #A80036; stroke-width: 1.5;" width="98" x="281" y="64.4531"/><rect fill="#FEFECE" height="10" style="stroke: #A80036; stroke-width: 1.5;" width="15" x="359" y="69.4531"/><rect fill="#FEFECE" height="2" style="stroke: #A80036; stroke-width: 1.5;" width="4" x="357" y="71.4531"/><rect fill="#FEFECE" height="2" style="stroke: #A80036; stroke-width: 1.5;" width="4" x="357" y="75.4531"/><text fill="#000000" font-family="sans-serif" font-size="14" lengthAdjust="spacingAndGlyphs" textLength="58" x="296" y="97.4482">WebApp</text><!--entity jupyter--><rect fill="#FEFECE" filter="url(#f81kqd4e9usm6)" height="46.2969" style="stroke: #A80036; stroke-width: 1.5;" width="159" x="414.5" y="64.4531"/><rect fill="#FEFECE" height="10" style="stroke: #A80036; stroke-width: 1.5;" width="15" x="553.5" y="69.4531"/><rect fill="#FEFECE" height="2" style="stroke: #A80036; stroke-width: 1.5;" width="4" x="551.5" y="71.4531"/><rect fill="#FEFECE" height="2" style="stroke: #A80036; stroke-width: 1.5;" width="4" x="551.5" y="75.4531"/><text fill="#000000" font-family="sans-serif" font-size="14" lengthAdjust="spacingAndGlyphs" textLength="119" x="429.5" y="97.4482">Jupyter Notebook</text><!--entity backend--><rect fill="#FEFECE" filter="url(#f81kqd4e9usm6)" height="46.2969" style="stroke: #A80036; stroke-width: 1.5;" width="192" x="315" y="327.4531"/><rect fill="#FEFECE" height="10" style="stroke: #A80036; stroke-width: 1.5;" width="15" x="487" y="332.4531"/><rect fill="#FEFECE" height="2" style="stroke: #A80036; stroke-width: 1.5;" width="4" x="485" y="334.4531"/><rect fill="#FEFECE" height="2" style="stroke: #A80036; stroke-width: 1.5;" width="4" x="485" y="338.4531"/><text fill="#000000" font-family="sans-serif" font-size="14" lengthAdjust="spacingAndGlyphs" textLength="152" x="330" y="360.4482">Core Backend Service</text><!--entity search--><rect fill="#FEFECE" filter="url(#f81kqd4e9usm6)" height="46.2969" style="stroke: #A80036; stroke-width: 1.5;" width="132" x="641" y="327.4531"/><rect fill="#FEFECE" height="10" style="stroke: #A80036; stroke-width: 1.5;" width="15" x="753" y="332.4531"/><rect fill="#FEFECE" height="2" style="stroke: #A80036; stroke-width: 1.5;" width="4" x="751" y="334.4531"/><rect fill="#FEFECE" height="2" style="stroke: #A80036; stroke-width: 1.5;" width="4" x="751" y="338.4531"/><text fill="#000000" font-family="sans-serif" font-size="14" lengthAdjust="spacingAndGlyphs" textLength="92" x="656" y="360.4482">ElasticSearch</text><!--entity foobarconnector--><rect fill="#FEFECE" filter="url(#f81kqd4e9usm6)" height="46.2969" style="stroke: #A80036; stroke-width: 1.5;" width="169" x="21.5" y="327.4531"/><rect fill="#FEFECE" height="10" style="stroke: #A80036; stroke-width: 1.5;" width="15" x="170.5" y="332.4531"/><rect fill="#FEFECE" height="2" style="stroke: #A80036; stroke-width: 1.5;" width="4" x="168.5" y="334.4531"/><rect fill="#FEFECE" height="2" style="stroke: #A80036; stroke-width: 1.5;" width="4" x="168.5" y="338.4531"/><text fill="#000000" font-family="sans-serif" font-size="14" lengthAdjust="spacingAndGlyphs" textLength="129" x="36.5" y="360.4482">Python Subsystem</text><!--entity data--><rect fill="#FEFECE" filter="url(#f81kqd4e9usm6)" height="46.2969" style="stroke: #A80036; stroke-width: 1.5;" width="91" x="365.5" y="532.4531"/><rect fill="#FEFECE" height="10" style="stroke: #A80036; stroke-width: 1.5;" width="15" x="436.5" y="537.4531"/><rect fill="#FEFECE" height="2" style="stroke: #A80036; stroke-width: 1.5;" width="4" x="434.5" y="539.4531"/><rect fill="#FEFECE" height="2" style="stroke: #A80036; stroke-width: 1.5;" width="4" x="434.5" y="543.4531"/><text fill="#000000" font-family="sans-serif" font-size="14" lengthAdjust="spacingAndGlyphs" textLength="51" x="380.5" y="565.4482">Entities</text><!--entity modules--><path d="M91.1547,525.7872 C93.1974,518.9856 98.9291,518.6223 102.986,523.7975 C105.8945,516.8588 111.828,516.2721 116.0128,522.5385 C119.1221,516.821 124.6458,515.6019 128.3044,521.9803 C132.2881,516.3523 136.2985,516.1634 141.0131,521.1012 C145.2132,515.7756 149.2971,515.182 153.3253,521.2865 C157.4494,515.5 161.573,514.132 166.0612,520.9177 C168.8366,515.005 173.131,514.9509 177.3808,519.2896 C180.7201,512.8033 185.7481,513.4464 189.2788,519.1022 C193.3854,513.5797 198.6357,514.776 201.6364,520.3354 C206.0764,514.8757 210.4029,514.32 214.3727,520.8354 C217.777,514.3771 223.549,516.3746 226.3988,521.4154 C230.6849,516.3527 235.194,518.0516 237.8316,523.2518 C242.0733,517.3205 248.0776,517.8882 250.7232,524.848 C253.8244,519.9294 259.2344,518.9988 262.2156,524.9745 C269.5069,529.1788 272.4142,534.495 264.7922,541.0844 C272.2357,546.0001 271.0664,551.4089 264.8746,556.3979 C272.9248,562.1284 272.4427,567.2573 263.8057,571.8321 C270.7996,578.2604 271.172,583.9557 262.024,588.6766 C259.6798,593.8109 254.9341,595.0237 251.2156,590.1628 C248.4316,596.1605 243.1106,596.2865 239.3006,591.273 C235.2873,597.2296 228.8653,598.4504 225.0296,591.0828 C222.5276,595.3845 217.8768,597.1249 214.7492,591.7473 C212.3926,598.595 206.9182,599.1727 202.1869,594.2904 C198.7747,600.5884 192.2215,599.8197 188.736,594.3743 C185.7324,600.1254 181.4703,600.6091 177.7694,595.0505 C173.7843,601.936 169.9101,601.8149 165.4813,595.4624 C161.301,600.2395 156.0374,600.4503 153.0576,594.1196 C148.1251,599.6663 143.7706,599.3961 140.8021,592.2268 C135.9749,598.3408 131.923,598.0669 127.5857,591.7078 C123.1901,596.7842 119.5709,596.8417 116.0252,590.8222 C111.8584,596.9392 105.5946,595.2942 103.1142,589.0594 C100.1387,594.1777 95.026,594.1276 92.3206,588.7808 C83.2499,585.4851 82.006,579.1426 89.278,572.7459 C82.6793,569.2552 81.1806,561.5074 88.2183,557.0935 C81.4552,551.8507 82.9213,545.5744 90.0411,542.0091 C83.1723,536.5579 84.2444,530.2926 91.1547,525.7872 " fill="#FFFFFF" style="stroke: #000000; stroke-width: 1.5;"/><text fill="#000000" font-family="sans-serif" font-size="14" lengthAdjust="spacingAndGlyphs" textLength="118" x="97.5" y="543.9482">analysis modules</text><text fill="#000000" font-family="sans-serif" font-size="14" font-style="italic" lengthAdjust="spacingAndGlyphs" textLength="157" x="97.5" y="560.2451">(module=python code</text><text fill="#000000" font-family="sans-serif" font-size="14" font-style="italic" lengthAdjust="spacingAndGlyphs" textLength="111" x="97.5" y="576.542">in git repository)</text><!--entity https--><ellipse cx="411" cy="216.4531" fill="#FEFECE" filter="url(#f81kqd4e9usm6)" rx="8" ry="8" style="stroke: #A80036; stroke-width: 2.0;"/><text fill="#000000" font-family="sans-serif" font-size="14" lengthAdjust="spacingAndGlyphs" textLength="36" x="393" y="246.4482">https</text><!--link https to backend--><path d="M411,225.6635 C411,246.418 411,297.3641 411,327.3521 " fill="none" id="https-backend" style="stroke: #A80036; stroke-width: 1.0;"/><text fill="#000000" font-family="sans-serif" font-size="13" lengthAdjust="spacingAndGlyphs" textLength="47" x="412" y="288.52">provide</text><!--link backend to search--><path d="M507.1027,350.4531 C548.9455,350.4531 597.1252,350.4531 635.6991,350.4531 " fill="none" id="backend-search" style="stroke: #A80036; stroke-width: 1.0;"/><polygon fill="#A80036" points="640.8353,350.4531,631.8353,346.4531,635.8353,350.4531,631.8353,354.4531,640.8353,350.4531" style="stroke: #A80036; stroke-width: 1.0;"/><text fill="#000000" font-family="sans-serif" font-size="13" lengthAdjust="spacingAndGlyphs" textLength="97" x="525.5" y="343.52">variable search</text><!--link backend to foobarconnector--><path d="M314.723,367.8449 C286.2634,371.1002 255.0265,372.8298 226.25,370.4531 C216.2809,369.6297 205.8938,368.4286 195.583,367.0173 " fill="none" id="backend-foobarconnector" style="stroke: #A80036; stroke-width: 1.0;"/><polygon fill="#A80036" points="190.5296,366.3084,198.8865,371.5201,195.4811,367.0031,199.9981,363.5977,190.5296,366.3084" style="stroke: #A80036; stroke-width: 1.0;"/><text fill="#000000" font-family="sans-serif" font-size="13" lengthAdjust="spacingAndGlyphs" textLength="51" x="227.25" y="366.52">execute</text><!--link foobarconnector to backend--><path d="M190.5545,350.4531 C227.5042,350.4531 271.1432,350.4531 309.8032,350.4531 " fill="none" id="foobarconnector-backend" style="stroke: #A80036; stroke-width: 1.0;"/><polygon fill="#A80036" points="314.9793,350.4531,305.9793,346.4531,309.9793,350.4531,305.9793,354.4531,314.9793,350.4531" style="stroke: #A80036; stroke-width: 1.0;"/><text fill="#000000" font-family="sans-serif" font-size="13" lengthAdjust="spacingAndGlyphs" textLength="88" x="208.75" y="343.52">communicate</text><!--link foobarconnector to modules--><path d="M113.8938,373.5707 C125.2552,406.8435 146.4354,468.8711 160.8711,511.147 " fill="none" id="foobarconnector-modules" style="stroke: #A80036; stroke-width: 1.0;"/><polygon fill="#A80036" points="162.5091,515.9441,163.386,506.1344,160.8933,511.2124,155.8153,508.7197,162.5091,515.9441" style="stroke: #A80036; stroke-width: 1.0;"/><text fill="#000000" font-family="sans-serif" font-size="13" lengthAdjust="spacingAndGlyphs" textLength="28" x="141" y="447.52">calls</text><!--link backend to modules--><path d="M384.4993,373.5707 C345.9706,407.1809 273.8068,470.1323 225.3224,512.4272 " fill="none" id="backend-modules" style="stroke: #A80036; stroke-width: 1.0;"/><polygon fill="#A80036" points="221.2908,515.9441,230.7024,513.0421,225.0586,512.6573,225.4434,507.0135,221.2908,515.9441" style="stroke: #A80036; stroke-width: 1.0;"/><text fill="#000000" font-family="sans-serif" font-size="13" lengthAdjust="spacingAndGlyphs" textLength="57" x="314" y="447.52">provision</text><!--link backend to data--><path d="M411,373.5707 C411,411.351 411,486.2049 411,527.1206 " fill="none" id="backend-data" style="stroke: #A80036; stroke-width: 1.0;"/><polygon fill="#A80036" points="411,532.42,415,523.42,411,527.42,407,523.42,411,532.42" style="stroke: #A80036; stroke-width: 1.0;"/><text fill="#000000" font-family="sans-serif" font-size="13" lengthAdjust="spacingAndGlyphs" textLength="23" x="412" y="447.52">use</text><!--link frontend to https--><path d="M344.4812,110.5157 C361.3894,137.4437 388.79,181.0816 402.5487,202.9937 " fill="none" id="frontend-https" style="stroke: #A80036; stroke-width: 1.0;"/><polygon fill="#A80036" points="405.2689,207.3258,403.8705,197.5767,402.61,203.0914,397.0954,201.8309,405.2689,207.3258" style="stroke: #A80036; stroke-width: 1.0;"/><text fill="#000000" font-family="sans-serif" font-size="13" lengthAdjust="spacingAndGlyphs" textLength="23" x="373" y="153.52">use</text><!--link jupyter to https--><path d="M479.1613,110.5157 C461.8355,137.4437 433.7584,181.0816 419.66,202.9937 " fill="none" id="jupyter-https" style="stroke: #A80036; stroke-width: 1.0;"/><polygon fill="#A80036" points="416.8726,207.3258,425.1063,201.9216,419.5781,203.121,418.3786,197.5928,416.8726,207.3258" style="stroke: #A80036; stroke-width: 1.0;"/><text fill="#000000" font-family="sans-serif" font-size="13" lengthAdjust="spacingAndGlyphs" textLength="23" x="458" y="153.52">use</text></g></svg>